<svg width="154" height="54" viewBox="0 0 154 54" fill="none" xmlns="http://www.w3.org/2000/svg">
<g filter="url(#filter0_d)">
<path fill-rule="evenodd" clip-rule="evenodd" d="M140 6C142.209 6 144 7.79086 144 10V31C144 33.2091 142.209 35 140 35H24.3868L21.5 40L18.6133 35H14C11.7909 35 10 33.2091 10 31V10C10 7.79086 11.7909 6 14 6H140Z" fill="#F1161B"/>
</g>
<path d="M111.524 14.4209C111.463 14.9473 111.268 15.354 110.94 15.6411C110.614 15.9259 110.18 16.0684 109.638 16.0684C109.05 16.0684 108.578 15.8576 108.223 15.436C107.869 15.0145 107.693 14.4505 107.693 13.7441V13.2656C107.693 12.8031 107.775 12.3963 107.939 12.0454C108.105 11.6945 108.34 11.4256 108.643 11.2388C108.946 11.0496 109.297 10.9551 109.696 10.9551C110.224 10.9551 110.648 11.1032 110.967 11.3994C111.286 11.6934 111.472 12.1012 111.524 12.623H110.865C110.808 12.2266 110.684 11.9395 110.492 11.7617C110.303 11.584 110.038 11.4951 109.696 11.4951C109.277 11.4951 108.947 11.6501 108.708 11.96C108.471 12.2699 108.353 12.7108 108.353 13.2827V13.7646C108.353 14.3047 108.465 14.7342 108.691 15.0532C108.917 15.3722 109.232 15.5317 109.638 15.5317C110.002 15.5317 110.281 15.4497 110.475 15.2856C110.671 15.1193 110.801 14.8311 110.865 14.4209H111.524ZM113.715 13.7646H113.11V16H112.454V11.0234H113.11V13.2178H113.623L115.363 11.0234H116.18L114.279 13.4365L116.32 16H115.517L113.715 13.7646ZM120.059 11.0234H120.715V16H120.059V12.165L117.608 16H116.949V11.0234H117.608V14.8584L120.059 11.0234ZM126.464 17.2202H125.812V16H122.24V17.2236H121.583L121.58 15.4634H121.987C122.201 15.2218 122.371 14.8983 122.496 14.4927C122.624 14.0848 122.703 13.6382 122.735 13.1528L122.845 11.0234H125.822V15.4634H126.471L126.464 17.2202ZM122.735 15.4634H125.162V11.5635H123.477L123.405 13.0264C123.376 13.5983 123.299 14.0859 123.176 14.4893C123.056 14.8926 122.909 15.2173 122.735 15.4634ZM128.542 13.7646H127.938V16H127.281V11.0234H127.938V13.2178H128.45L130.19 11.0234H131.007L129.106 13.4365L131.147 16H130.344L128.542 13.7646ZM134.497 14.7012H132.412L131.943 16H131.267L133.167 11.0234H133.741L135.645 16H134.972L134.497 14.7012ZM132.61 14.1611H134.302L133.454 11.8335L132.61 14.1611ZM113.297 27.0293H109.998V25.6641H113.297V27.0293ZM114.838 25.8047L115.33 21.4688H120.111V22.8809H116.719L116.508 24.7148C116.91 24.5 117.338 24.3926 117.791 24.3926C118.604 24.3926 119.24 24.6445 119.701 25.1484C120.162 25.6523 120.393 26.3574 120.393 27.2637C120.393 27.8145 120.275 28.3086 120.041 28.7461C119.811 29.1797 119.479 29.5176 119.045 29.7598C118.611 29.998 118.1 30.1172 117.51 30.1172C116.994 30.1172 116.516 30.0137 116.074 29.8066C115.633 29.5957 115.283 29.3008 115.025 28.9219C114.771 28.543 114.637 28.1113 114.621 27.627H116.297C116.332 27.9824 116.455 28.2598 116.666 28.459C116.881 28.6543 117.16 28.752 117.504 28.752C117.887 28.752 118.182 28.6152 118.389 28.3418C118.596 28.0645 118.699 27.6738 118.699 27.1699C118.699 26.6855 118.58 26.3145 118.342 26.0566C118.104 25.7988 117.766 25.6699 117.328 25.6699C116.926 25.6699 116.6 25.7754 116.35 25.9863L116.186 26.1387L114.838 25.8047ZM127.219 26.4727C127.219 27.6523 126.975 28.5547 126.486 29.1797C125.998 29.8047 125.283 30.1172 124.342 30.1172C123.412 30.1172 122.701 29.8105 122.209 29.1973C121.717 28.584 121.465 27.7051 121.453 26.5605V24.9902C121.453 23.7988 121.699 22.8945 122.191 22.2773C122.688 21.6602 123.4 21.3516 124.33 21.3516C125.26 21.3516 125.971 21.6582 126.463 22.2715C126.955 22.8809 127.207 23.7578 127.219 24.9023V26.4727ZM125.525 24.75C125.525 24.043 125.428 23.5293 125.232 23.209C125.041 22.8848 124.74 22.7227 124.33 22.7227C123.932 22.7227 123.637 22.877 123.445 23.1855C123.258 23.4902 123.158 23.9688 123.146 24.6211V26.6953C123.146 27.3906 123.24 27.9082 123.428 28.248C123.619 28.584 123.924 28.752 124.342 28.752C124.756 28.752 125.055 28.5898 125.238 28.2656C125.422 27.9414 125.518 27.4453 125.525 26.7773V24.75ZM128.344 23.1094C128.344 22.5859 128.514 22.1621 128.854 21.8379C129.193 21.5098 129.639 21.3457 130.189 21.3457C130.748 21.3457 131.197 21.5078 131.537 21.832C131.877 22.1523 132.047 22.5879 132.047 23.1387V23.5605C132.047 24.0879 131.877 24.5117 131.537 24.832C131.197 25.1523 130.752 25.3125 130.201 25.3125C129.646 25.3125 129.197 25.1523 128.854 24.832C128.514 24.5078 128.344 24.0723 128.344 23.5254V23.1094ZM129.469 23.5605C129.469 23.7949 129.535 23.9844 129.668 24.1289C129.805 24.2695 129.982 24.3398 130.201 24.3398C130.42 24.3398 130.594 24.2676 130.723 24.123C130.852 23.9785 130.916 23.7852 130.916 23.543V23.1094C130.916 22.875 130.852 22.6855 130.723 22.541C130.594 22.3965 130.416 22.3242 130.189 22.3242C129.975 22.3242 129.801 22.3965 129.668 22.541C129.535 22.6816 129.469 22.8789 129.469 23.1328V23.5605ZM132.422 27.9082C132.422 27.3809 132.594 26.957 132.938 26.6367C133.281 26.3125 133.727 26.1504 134.273 26.1504C134.828 26.1504 135.275 26.3105 135.615 26.6309C135.959 26.9473 136.131 27.3848 136.131 27.9434V28.3652C136.131 28.8887 135.963 29.3125 135.627 29.6367C135.291 29.957 134.844 30.1172 134.285 30.1172C133.723 30.1172 133.271 29.9551 132.932 29.6309C132.592 29.3066 132.422 28.877 132.422 28.3418V27.9082ZM133.547 28.3652C133.547 28.5801 133.617 28.7637 133.758 28.916C133.898 29.0684 134.074 29.1445 134.285 29.1445C134.762 29.1445 135 28.8809 135 28.3535V27.9082C135 27.6738 134.934 27.4863 134.801 27.3457C134.668 27.2012 134.492 27.1289 134.273 27.1289C134.055 27.1289 133.879 27.2012 133.746 27.3457C133.613 27.4863 133.547 27.6797 133.547 27.9258V28.3652ZM130.535 29.3613L129.709 28.916L133.875 22.248L134.701 22.6934L130.535 29.3613Z" fill="white"/>
<g clip-path="url(#clip0)">
<path d="M33.9796 12.2691C33.9428 11.5938 33.4057 11.0568 32.7304 11.02C31.3678 10.9455 28.7015 11.0179 26.1519 12.3367C24.8522 13.009 23.4775 14.1488 22.3806 15.4639C22.367 15.4801 22.3539 15.4964 22.3405 15.5126L19.8509 15.7049C19.4411 15.7366 19.0761 15.9514 18.8495 16.2942L17.151 18.8632C16.9791 19.1232 16.9518 19.4485 17.0778 19.7335C17.204 20.0185 17.4631 20.2172 17.771 20.2649L19.8685 20.5897C19.8611 20.6305 19.8537 20.6712 19.8469 20.712C19.777 21.1297 19.9154 21.5592 20.2171 21.8608L23.1387 24.7824C23.3888 25.0326 23.7268 25.1705 24.0731 25.1705C24.1444 25.1705 24.2162 25.1646 24.2875 25.1527C24.3283 25.1459 24.3691 25.1384 24.4098 25.131L24.7347 27.2285C24.7824 27.5365 24.981 27.7956 25.266 27.9217C25.3845 27.9742 25.51 28.0001 25.6349 28.0001C25.8103 28 25.9845 27.949 26.1363 27.8486L28.7053 26.1501C29.0481 25.9234 29.2629 25.5584 29.2945 25.1486L29.4868 22.6591C29.5031 22.6457 29.5194 22.6325 29.5356 22.619C30.8507 21.522 31.9906 20.1474 32.6629 18.8477C33.9817 16.298 34.0539 13.6316 33.9796 12.2691V12.2691ZM28.156 25.3191L25.6986 26.9439L25.3819 24.8997C26.4205 24.5944 27.4479 24.1053 28.4267 23.4501L28.3015 25.0719C28.2937 25.173 28.2406 25.2632 28.156 25.3191V25.3191ZM23.843 24.0781L20.9214 21.1565C20.8469 21.0819 20.8124 20.9771 20.8293 20.8762C20.9162 20.3568 21.0511 19.8624 21.2182 19.3966L25.602 23.7804C25.0425 23.9808 24.5415 24.1003 24.1233 24.1702C24.0222 24.187 23.9176 24.1526 23.843 24.0781V24.0781ZM19.9276 16.6981L21.5494 16.5728C20.8942 17.5516 20.4051 18.579 20.0997 19.6176L18.0556 19.301L19.6804 16.8436C19.7364 16.7589 19.8265 16.7059 19.9276 16.6981V16.6981ZM28.8976 21.8541C28.093 22.5252 27.312 23.0106 26.5921 23.3619L21.6375 18.4073C22.0976 17.4675 22.6592 16.6849 23.1455 16.102C24.1606 14.8849 25.4233 13.835 26.6096 13.2214C28.9495 12.011 31.4149 11.9459 32.6762 12.0145C32.8432 12.0236 32.9759 12.1564 32.985 12.3234C33.0538 13.5847 32.9885 16.05 31.7781 18.39C31.1646 19.5763 30.1147 20.8389 28.8976 21.8541Z" fill="white"/>
<path d="M28.645 18.8432C29.2825 18.8431 29.9204 18.6004 30.4057 18.115C30.8761 17.6447 31.1351 17.0193 31.1351 16.3542C31.1351 15.6891 30.8761 15.0638 30.4057 14.5934C29.4348 13.6225 27.855 13.6225 26.8842 14.5934C26.4138 15.0638 26.1548 15.6891 26.1548 16.3542C26.1548 17.0193 26.4138 17.6447 26.8842 18.115C27.3697 18.6005 28.0072 18.8433 28.645 18.8432ZM27.5884 15.2977C27.8797 15.0064 28.2623 14.8608 28.6449 14.8608C29.0275 14.8608 29.4101 15.0064 29.7014 15.2977C29.9836 15.5799 30.139 15.9551 30.139 16.3542C30.139 16.7533 29.9836 17.1285 29.7014 17.4107C29.1189 17.9932 28.1709 17.9932 27.5884 17.4107C27.3062 17.1285 27.1508 16.7533 27.1508 16.3542C27.1508 15.9552 27.3062 15.5799 27.5884 15.2977Z" fill="white"/>
<path d="M17.5083 25.0089C17.6358 25.0089 17.7632 24.9603 17.8604 24.863L19.4865 23.2369C19.681 23.0424 19.681 22.7271 19.4865 22.5326C19.292 22.3381 18.9767 22.3381 18.7822 22.5326L17.1561 24.1587C16.9616 24.3532 16.9616 24.6685 17.1561 24.863C17.2534 24.9602 17.3808 25.0089 17.5083 25.0089V25.0089Z" fill="white"/>
<path d="M20.9764 24.0228C20.782 23.8283 20.4666 23.8283 20.2721 24.0228L17.1459 27.1491C16.9514 27.3436 16.9514 27.6589 17.1459 27.8534C17.2431 27.9507 17.3706 27.9993 17.498 27.9993C17.6255 27.9993 17.753 27.9507 17.8502 27.8534L20.9764 24.7272C21.1709 24.5327 21.1709 24.2173 20.9764 24.0228V24.0228Z" fill="white"/>
<path d="M21.7622 25.5131L20.1361 27.1391C19.9416 27.3336 19.9416 27.649 20.1361 27.8435C20.2334 27.9407 20.3608 27.9894 20.4883 27.9894C20.6157 27.9894 20.7432 27.9407 20.8404 27.8435L22.4665 26.2174C22.661 26.0229 22.661 25.7076 22.4665 25.5131C22.272 25.3186 21.9566 25.3186 21.7622 25.5131Z" fill="white"/>
</g>
<path d="M39.9492 15.3281L41.1836 11.7734H41.6875L39.8828 16.7188L39.7891 16.9375C39.5573 17.4505 39.1992 17.707 38.7148 17.707C38.6029 17.707 38.4831 17.6888 38.3555 17.6523L38.3516 17.2656L38.5938 17.2891C38.8229 17.2891 39.0078 17.2318 39.1484 17.1172C39.2917 17.0052 39.4128 16.8112 39.5117 16.5352L39.7188 15.9648L38.125 11.7734H38.6367L39.9492 15.3281ZM43.9219 15.6836C44.2474 15.6836 44.5195 15.5924 44.7383 15.4102C44.9596 15.2253 45.0794 14.987 45.0977 14.6953H45.5469C45.5339 14.9531 45.4531 15.1888 45.3047 15.4023C45.1562 15.6133 44.9583 15.7786 44.7109 15.8984C44.4661 16.0182 44.2031 16.0781 43.9219 16.0781C43.3672 16.0781 42.9271 15.8854 42.6016 15.5C42.2786 15.1146 42.1172 14.5964 42.1172 13.9453V13.8047C42.1172 13.388 42.1901 13.0195 42.3359 12.6992C42.4818 12.3789 42.6901 12.1315 42.9609 11.957C43.2344 11.7826 43.5534 11.6953 43.918 11.6953C44.3815 11.6953 44.763 11.8333 45.0625 12.1094C45.3646 12.3854 45.526 12.7487 45.5469 13.1992H45.0977C45.0768 12.8685 44.957 12.6016 44.7383 12.3984C44.5221 12.1953 44.2487 12.0938 43.918 12.0938C43.4961 12.0938 43.168 12.2461 42.9336 12.5508C42.7018 12.8555 42.5859 13.2826 42.5859 13.832V13.9688C42.5859 14.5078 42.7018 14.9284 42.9336 15.2305C43.168 15.5326 43.4974 15.6836 43.9219 15.6836ZM47.6328 14.0625H46.9844V16H46.5117V11.7734H46.9844V13.6484H47.625L49.1758 11.7734H49.7656L48.0312 13.8242L49.957 16H49.3398L47.6328 14.0625ZM50.2891 13.8242C50.2891 13.418 50.3672 13.0521 50.5234 12.7266C50.6823 12.401 50.9049 12.1484 51.1914 11.9688C51.4805 11.7865 51.8073 11.6953 52.1719 11.6953C52.7344 11.6953 53.1901 11.8932 53.5391 12.2891C53.888 12.6823 54.0625 13.2044 54.0625 13.8555V13.9531C54.0625 14.362 53.9831 14.7305 53.8242 15.0586C53.668 15.3841 53.4466 15.6354 53.1602 15.8125C52.8737 15.9896 52.5469 16.0781 52.1797 16.0781C51.6198 16.0781 51.1641 15.8815 50.8125 15.4883C50.4635 15.0924 50.2891 14.569 50.2891 13.918V13.8242ZM50.7578 13.9531C50.7578 14.4583 50.888 14.8737 51.1484 15.1992C51.4115 15.5221 51.7552 15.6836 52.1797 15.6836C52.6016 15.6836 52.9427 15.5221 53.2031 15.1992C53.4661 14.8737 53.5977 14.4453 53.5977 13.9141V13.8242C53.5977 13.5013 53.5378 13.2057 53.418 12.9375C53.2982 12.6693 53.1302 12.4622 52.9141 12.3164C52.6979 12.168 52.4505 12.0938 52.1719 12.0938C51.7552 12.0938 51.4154 12.2578 51.1523 12.5859C50.8893 12.9115 50.7578 13.3385 50.7578 13.8672V13.9531ZM58.4297 13.9297C58.4297 14.5885 58.2839 15.112 57.9922 15.5C57.7005 15.8854 57.3099 16.0781 56.8203 16.0781C56.2422 16.0781 55.7995 15.875 55.4922 15.4688V17.625H55.0273V11.7734H55.4609L55.4844 12.3711C55.7891 11.9206 56.2305 11.6953 56.8086 11.6953C57.3138 11.6953 57.7096 11.8867 57.9961 12.2695C58.2852 12.6523 58.4297 13.1836 58.4297 13.8633V13.9297ZM57.9609 13.8477C57.9609 13.3086 57.8503 12.8828 57.6289 12.5703C57.4076 12.2578 57.099 12.1016 56.7031 12.1016C56.4167 12.1016 56.1706 12.1706 55.9648 12.3086C55.7591 12.4466 55.6016 12.6471 55.4922 12.9102V14.9375C55.6042 15.1797 55.7643 15.3646 55.9727 15.4922C56.181 15.6198 56.4271 15.6836 56.7109 15.6836C57.1042 15.6836 57.4102 15.5273 57.6289 15.2148C57.8503 14.8997 57.9609 14.444 57.9609 13.8477ZM61.1055 16.0781C60.7461 16.0781 60.4206 15.9896 60.1289 15.8125C59.8398 15.6354 59.6146 15.3893 59.4531 15.0742C59.2917 14.7565 59.2109 14.401 59.2109 14.0078V13.8398C59.2109 13.4336 59.2891 13.0677 59.4453 12.7422C59.6042 12.4167 59.8242 12.1615 60.1055 11.9766C60.3867 11.7891 60.6914 11.6953 61.0195 11.6953C61.5326 11.6953 61.9388 11.8711 62.2383 12.2227C62.5404 12.5716 62.6914 13.0495 62.6914 13.6562V13.918H59.6758V14.0078C59.6758 14.487 59.8125 14.8867 60.0859 15.207C60.362 15.5247 60.7083 15.6836 61.125 15.6836C61.375 15.6836 61.5951 15.638 61.7852 15.5469C61.9779 15.4557 62.1523 15.3099 62.3086 15.1094L62.6016 15.332C62.2578 15.8294 61.7591 16.0781 61.1055 16.0781ZM61.0195 12.0938C60.668 12.0938 60.3711 12.2227 60.1289 12.4805C59.8893 12.7383 59.7435 13.0846 59.6914 13.5195H62.2266V13.4688C62.2135 13.0625 62.0977 12.7318 61.8789 12.4766C61.6602 12.2214 61.3737 12.0938 61.0195 12.0938ZM66.8477 16H66.3789V14.0625H64.1016V16H63.6328V11.7734H64.1016V13.668H66.3789V11.7734H66.8477V16ZM70.8789 11.7734H71.3477V16H70.8789V12.5273L68.5977 16H68.1328V11.7734H68.5977V15.25L70.8789 11.7734ZM74.2383 16.0781C73.8789 16.0781 73.5534 15.9896 73.2617 15.8125C72.9727 15.6354 72.7474 15.3893 72.5859 15.0742C72.4245 14.7565 72.3438 14.401 72.3438 14.0078V13.8398C72.3438 13.4336 72.4219 13.0677 72.5781 12.7422C72.737 12.4167 72.957 12.1615 73.2383 11.9766C73.5195 11.7891 73.8242 11.6953 74.1523 11.6953C74.6654 11.6953 75.0716 11.8711 75.3711 12.2227C75.6732 12.5716 75.8242 13.0495 75.8242 13.6562V13.918H72.8086V14.0078C72.8086 14.487 72.9453 14.8867 73.2188 15.207C73.4948 15.5247 73.8411 15.6836 74.2578 15.6836C74.5078 15.6836 74.7279 15.638 74.918 15.5469C75.1107 15.4557 75.2852 15.3099 75.4414 15.1094L75.7344 15.332C75.3906 15.8294 74.8919 16.0781 74.2383 16.0781ZM74.1523 12.0938C73.8008 12.0938 73.5039 12.2227 73.2617 12.4805C73.0221 12.7383 72.8763 13.0846 72.8242 13.5195H75.3594V13.4688C75.3464 13.0625 75.2305 12.7318 75.0117 12.4766C74.793 12.2214 74.5065 12.0938 74.1523 12.0938ZM38.5117 27.6055L38.7188 27.3359C39.0469 26.8906 39.2357 26.2396 39.2852 25.3828L39.3594 23.7734H41.8555V27.6055H42.293V29.2422H41.8281V28H38.6523V29.2422H38.2031L38.207 27.6055H38.5117ZM39.0508 27.6055H41.3867V24.2109H39.8047L39.7539 25.3086C39.707 26.3164 39.4727 27.082 39.0508 27.6055ZM42.9375 25.8242C42.9375 25.418 43.0156 25.0521 43.1719 24.7266C43.3307 24.401 43.5534 24.1484 43.8398 23.9688C44.1289 23.7865 44.4557 23.6953 44.8203 23.6953C45.3828 23.6953 45.8385 23.8932 46.1875 24.2891C46.5365 24.6823 46.7109 25.2044 46.7109 25.8555V25.9531C46.7109 26.362 46.6315 26.7305 46.4727 27.0586C46.3164 27.3841 46.0951 27.6354 45.8086 27.8125C45.5221 27.9896 45.1953 28.0781 44.8281 28.0781C44.2682 28.0781 43.8125 27.8815 43.4609 27.4883C43.112 27.0924 42.9375 26.569 42.9375 25.918V25.8242ZM43.4062 25.9531C43.4062 26.4583 43.5365 26.8737 43.7969 27.1992C44.0599 27.5221 44.4036 27.6836 44.8281 27.6836C45.25 27.6836 45.5911 27.5221 45.8516 27.1992C46.1146 26.8737 46.2461 26.4453 46.2461 25.9141V25.8242C46.2461 25.5013 46.1862 25.2057 46.0664 24.9375C45.9466 24.6693 45.7786 24.4622 45.5625 24.3164C45.3464 24.168 45.099 24.0938 44.8203 24.0938C44.4036 24.0938 44.0638 24.2578 43.8008 24.5859C43.5378 24.9115 43.4062 25.3385 43.4062 25.8672V25.9531ZM54.3721 28H49.499V27.0332L51.7988 24.582C52.1146 24.237 52.3473 23.9359 52.4971 23.6787C52.6501 23.4215 52.7266 23.1774 52.7266 22.9463C52.7266 22.6305 52.6468 22.3831 52.4873 22.2041C52.3278 22.0218 52.0999 21.9307 51.8037 21.9307C51.4847 21.9307 51.2324 22.0413 51.0469 22.2627C50.8646 22.4808 50.7734 22.7689 50.7734 23.127H49.3574C49.3574 22.694 49.46 22.2985 49.665 21.9404C49.8734 21.5824 50.1663 21.3024 50.5439 21.1006C50.9215 20.8955 51.3496 20.793 51.8281 20.793C52.5605 20.793 53.1286 20.9688 53.5322 21.3203C53.9391 21.6719 54.1426 22.1683 54.1426 22.8096C54.1426 23.1611 54.0514 23.5192 53.8691 23.8838C53.6868 24.2484 53.3743 24.6732 52.9316 25.1582L51.3154 26.8623H54.3721V28ZM60.0264 25.0605C60.0264 26.0436 59.8229 26.7956 59.416 27.3164C59.0091 27.8372 58.4134 28.0977 57.6289 28.0977C56.8542 28.0977 56.2617 27.8421 55.8516 27.3311C55.4414 26.82 55.2314 26.0876 55.2217 25.1338V23.8252C55.2217 22.8324 55.4268 22.0788 55.8369 21.5645C56.2503 21.0501 56.8444 20.793 57.6191 20.793C58.3939 20.793 58.9863 21.0485 59.3965 21.5596C59.8066 22.0674 60.0166 22.7982 60.0264 23.752V25.0605ZM58.6152 23.625C58.6152 23.0358 58.5339 22.6077 58.3711 22.3408C58.2116 22.0706 57.9609 21.9355 57.6191 21.9355C57.2871 21.9355 57.0413 22.0641 56.8818 22.3213C56.7256 22.5752 56.6426 22.974 56.6328 23.5176V25.2461C56.6328 25.8255 56.7109 26.2568 56.8672 26.54C57.0267 26.82 57.2806 26.96 57.6289 26.96C57.974 26.96 58.223 26.8249 58.376 26.5547C58.529 26.2845 58.6087 25.8711 58.6152 25.3145V23.625ZM65.7686 25.0605C65.7686 26.0436 65.5651 26.7956 65.1582 27.3164C64.7513 27.8372 64.1556 28.0977 63.3711 28.0977C62.5964 28.0977 62.0039 27.8421 61.5938 27.3311C61.1836 26.82 60.9736 26.0876 60.9639 25.1338V23.8252C60.9639 22.8324 61.1689 22.0788 61.5791 21.5645C61.9925 21.0501 62.5866 20.793 63.3613 20.793C64.1361 20.793 64.7285 21.0485 65.1387 21.5596C65.5488 22.0674 65.7588 22.7982 65.7686 23.752V25.0605ZM64.3574 23.625C64.3574 23.0358 64.276 22.6077 64.1133 22.3408C63.9538 22.0706 63.7031 21.9355 63.3613 21.9355C63.0293 21.9355 62.7835 22.0641 62.624 22.3213C62.4678 22.5752 62.3848 22.974 62.375 23.5176V25.2461C62.375 25.8255 62.4531 26.2568 62.6094 26.54C62.7689 26.82 63.0228 26.96 63.3711 26.96C63.7161 26.96 63.9652 26.8249 64.1182 26.5547C64.2712 26.2845 64.3509 25.8711 64.3574 25.3145V23.625ZM69.543 22.3125L71.6406 27.332L73.7461 22.3125H74.3867V28H73.9062V25.5234L73.9453 22.9844L71.8281 28H71.457L69.3477 23.0039L69.3867 25.5078V28H68.9062V22.3125H69.543ZM77.4219 24.0547C77.9583 24.0547 78.3932 24.2305 78.7266 24.582C79.0599 24.931 79.2266 25.3945 79.2266 25.9727V26.0742C79.2266 26.457 79.1497 26.8021 78.9961 27.1094C78.8451 27.4141 78.6263 27.6523 78.3398 27.8242C78.056 27.9935 77.7292 28.0781 77.3594 28.0781C76.8021 28.0781 76.3503 27.8932 76.0039 27.5234C75.6602 27.151 75.4883 26.6549 75.4883 26.0352V25.6602C75.4883 24.7852 75.6549 24.0859 75.9883 23.5625C76.3216 23.0391 76.7956 22.7266 77.4102 22.625C77.7982 22.5625 78.0703 22.4779 78.2266 22.3711C78.3854 22.2643 78.4648 22.1185 78.4648 21.9336H78.8672C78.8672 22.1523 78.8216 22.3333 78.7305 22.4766C78.6393 22.6198 78.5026 22.7357 78.3203 22.8242C78.138 22.9102 77.8594 22.9831 77.4844 23.043C77.0547 23.1107 76.7083 23.2943 76.4453 23.5938C76.1849 23.8906 76.0156 24.2891 75.9375 24.7891C76.1042 24.5703 76.3125 24.3932 76.5625 24.2578C76.8151 24.1224 77.1016 24.0547 77.4219 24.0547ZM75.957 25.9766V26.0742C75.957 26.5508 76.0859 26.9388 76.3438 27.2383C76.6016 27.5352 76.9401 27.6836 77.3594 27.6836C77.7812 27.6836 78.1198 27.5339 78.375 27.2344C78.6302 26.9323 78.7578 26.5365 78.7578 26.0469V25.9453C78.7578 25.5052 78.6276 25.1458 78.3672 24.8672C78.1094 24.5885 77.7708 24.4492 77.3516 24.4492C76.9323 24.4492 76.5951 24.5911 76.3398 24.875C76.0846 25.1562 75.957 25.5234 75.957 25.9766ZM82.832 23.7734H83.3008V28H82.832V24.5273L80.5508 28H80.0859V23.7734H80.5508V27.25L82.832 23.7734ZM87.5898 24.1719H86.0508V28H85.582V24.1719H84.1016V23.7734H87.5898V24.1719ZM88.293 28.4883H87.8672L90.2422 22.3125H90.6641L88.293 28.4883ZM93.1016 27.6836C93.4271 27.6836 93.6992 27.5924 93.918 27.4102C94.1393 27.2253 94.2591 26.987 94.2773 26.6953H94.7266C94.7135 26.9531 94.6328 27.1888 94.4844 27.4023C94.3359 27.6133 94.138 27.7786 93.8906 27.8984C93.6458 28.0182 93.3828 28.0781 93.1016 28.0781C92.5469 28.0781 92.1068 27.8854 91.7812 27.5C91.4583 27.1146 91.2969 26.5964 91.2969 25.9453V25.8047C91.2969 25.388 91.3698 25.0195 91.5156 24.6992C91.6615 24.3789 91.8698 24.1315 92.1406 23.957C92.4141 23.7826 92.7331 23.6953 93.0977 23.6953C93.5612 23.6953 93.9427 23.8333 94.2422 24.1094C94.5443 24.3854 94.7057 24.7487 94.7266 25.1992H94.2773C94.2565 24.8685 94.1367 24.6016 93.918 24.3984C93.7018 24.1953 93.4284 24.0938 93.0977 24.0938C92.6758 24.0938 92.3477 24.2461 92.1133 24.5508C91.8815 24.8555 91.7656 25.2826 91.7656 25.832V25.9688C91.7656 26.5078 91.8815 26.9284 92.1133 27.2305C92.3477 27.5326 92.6771 27.6836 93.1016 27.6836Z" fill="white"/>
<rect width="1" height="18" transform="matrix(-1 0 0 1 101 11)" fill="#E5E5E5"/>
<defs>
<filter id="filter0_d" x="0" y="0" width="154" height="54" filterUnits="userSpaceOnUse" color-interpolation-filters="sRGB">
<feFlood flood-opacity="0" result="BackgroundImageFix"/>
<feColorMatrix in="SourceAlpha" type="matrix" values="0 0 0 0 0 0 0 0 0 0 0 0 0 0 0 0 0 0 127 0"/>
<feOffset dy="4"/>
<feGaussianBlur stdDeviation="5"/>
<feColorMatrix type="matrix" values="0 0 0 0 0 0 0 0 0 0 0 0 0 0 0 0 0 0 0.15 0"/>
<feBlend mode="normal" in2="BackgroundImageFix" result="effect1_dropShadow"/>
<feBlend mode="normal" in="SourceGraphic" in2="effect1_dropShadow" result="shape"/>
</filter>
<clipPath id="clip0">
<rect width="17" height="17" fill="white" transform="translate(17 11)"/>
</clipPath>
</defs>
</svg>
