<svg width="69" height="54" viewBox="0 0 69 54" fill="none" xmlns="http://www.w3.org/2000/svg">
<g filter="url(#filter0_d)">
<path fill-rule="evenodd" clip-rule="evenodd" d="M14 6C11.7909 6 10 7.79086 10 10V31C10 33.2091 11.7909 35 14 35H44.6133L47.5 40L50.3867 35H55C57.2091 35 59 33.2091 59 31V10C59 7.79086 57.2091 6 55 6H14Z" fill="#F1161B"/>
</g>
<path d="M23.0977 14.1953C23.0273 14.7969 22.8047 15.2617 22.4297 15.5898C22.0573 15.9154 21.5612 16.0781 20.9414 16.0781C20.2695 16.0781 19.7305 15.8372 19.3242 15.3555C18.9206 14.8737 18.7188 14.2292 18.7188 13.4219V12.875C18.7188 12.3464 18.8125 11.8815 19 11.4805C19.1901 11.0794 19.4583 10.7721 19.8047 10.5586C20.151 10.3424 20.5521 10.2344 21.0078 10.2344C21.612 10.2344 22.0964 10.4036 22.4609 10.7422C22.8255 11.0781 23.0378 11.5443 23.0977 12.1406H22.3438C22.2786 11.6875 22.1367 11.3594 21.918 11.1562C21.7018 10.9531 21.3984 10.8516 21.0078 10.8516C20.5286 10.8516 20.1523 11.0286 19.8789 11.3828C19.6081 11.737 19.4727 12.2409 19.4727 12.8945V13.4453C19.4727 14.0625 19.6016 14.5534 19.8594 14.918C20.1172 15.2826 20.4779 15.4648 20.9414 15.4648C21.3581 15.4648 21.6771 15.3711 21.8984 15.1836C22.1224 14.9935 22.2708 14.6641 22.3438 14.1953H23.0977ZM25.6016 13.4453H24.9102V16H24.1602V10.3125H24.9102V12.8203H25.4961L27.4844 10.3125H28.418L26.2461 13.0703L28.5781 16H27.6602L25.6016 13.4453ZM32.8516 10.3125H33.6016V16H32.8516V11.6172L30.0508 16H29.2969V10.3125H30.0508V14.6953L32.8516 10.3125ZM40.1719 17.3945H39.4258V16H35.3438V17.3984H34.5938L34.5898 15.3867H35.0547C35.2995 15.1107 35.4935 14.7409 35.6367 14.2773C35.7826 13.8112 35.8737 13.3008 35.9102 12.7461L36.0352 10.3125H39.4375V15.3867H40.1797L40.1719 17.3945ZM35.9102 15.3867H38.6836V10.9297H36.7578L36.6758 12.6016C36.6419 13.2552 36.5547 13.8125 36.4141 14.2734C36.276 14.7344 36.1081 15.1055 35.9102 15.3867ZM42.5469 13.4453H41.8555V16H41.1055V10.3125H41.8555V12.8203H42.4414L44.4297 10.3125H45.3633L43.1914 13.0703L45.5234 16H44.6055L42.5469 13.4453ZM49.3516 14.5156H46.9688L46.4336 16H45.6602L47.832 10.3125H48.4883L50.6641 16H49.8945L49.3516 14.5156ZM47.1953 13.8984H49.1289L48.1602 11.2383L47.1953 13.8984ZM26.2969 27.0293H22.998V25.6641H26.2969V27.0293ZM27.8379 25.8047L28.3301 21.4688H33.1113V22.8809H29.7188L29.5078 24.7148C29.9102 24.5 30.3379 24.3926 30.791 24.3926C31.6035 24.3926 32.2402 24.6445 32.7012 25.1484C33.1621 25.6523 33.3926 26.3574 33.3926 27.2637C33.3926 27.8145 33.2754 28.3086 33.041 28.7461C32.8105 29.1797 32.4785 29.5176 32.0449 29.7598C31.6113 29.998 31.0996 30.1172 30.5098 30.1172C29.9941 30.1172 29.5156 30.0137 29.0742 29.8066C28.6328 29.5957 28.2832 29.3008 28.0254 28.9219C27.7715 28.543 27.6367 28.1113 27.6211 27.627H29.2969C29.332 27.9824 29.4551 28.2598 29.666 28.459C29.8809 28.6543 30.1602 28.752 30.5039 28.752C30.8867 28.752 31.1816 28.6152 31.3887 28.3418C31.5957 28.0645 31.6992 27.6738 31.6992 27.1699C31.6992 26.6855 31.5801 26.3145 31.3418 26.0566C31.1035 25.7988 30.7656 25.6699 30.3281 25.6699C29.9258 25.6699 29.5996 25.7754 29.3496 25.9863L29.1855 26.1387L27.8379 25.8047ZM40.2188 26.4727C40.2188 27.6523 39.9746 28.5547 39.4863 29.1797C38.998 29.8047 38.2832 30.1172 37.3418 30.1172C36.4121 30.1172 35.7012 29.8105 35.209 29.1973C34.7168 28.584 34.4648 27.7051 34.4531 26.5605V24.9902C34.4531 23.7988 34.6992 22.8945 35.1914 22.2773C35.6875 21.6602 36.4004 21.3516 37.3301 21.3516C38.2598 21.3516 38.9707 21.6582 39.4629 22.2715C39.9551 22.8809 40.207 23.7578 40.2188 24.9023V26.4727ZM38.5254 24.75C38.5254 24.043 38.4277 23.5293 38.2324 23.209C38.041 22.8848 37.7402 22.7227 37.3301 22.7227C36.9316 22.7227 36.6367 22.877 36.4453 23.1855C36.2578 23.4902 36.1582 23.9688 36.1465 24.6211V26.6953C36.1465 27.3906 36.2402 27.9082 36.4277 28.248C36.6191 28.584 36.9238 28.752 37.3418 28.752C37.7559 28.752 38.0547 28.5898 38.2383 28.2656C38.4219 27.9414 38.5176 27.4453 38.5254 26.7773V24.75ZM41.3438 23.1094C41.3438 22.5859 41.5137 22.1621 41.8535 21.8379C42.1934 21.5098 42.6387 21.3457 43.1895 21.3457C43.748 21.3457 44.1973 21.5078 44.5371 21.832C44.877 22.1523 45.0469 22.5879 45.0469 23.1387V23.5605C45.0469 24.0879 44.877 24.5117 44.5371 24.832C44.1973 25.1523 43.752 25.3125 43.2012 25.3125C42.6465 25.3125 42.1973 25.1523 41.8535 24.832C41.5137 24.5078 41.3438 24.0723 41.3438 23.5254V23.1094ZM42.4688 23.5605C42.4688 23.7949 42.5352 23.9844 42.668 24.1289C42.8047 24.2695 42.9824 24.3398 43.2012 24.3398C43.4199 24.3398 43.5938 24.2676 43.7227 24.123C43.8516 23.9785 43.916 23.7852 43.916 23.543V23.1094C43.916 22.875 43.8516 22.6855 43.7227 22.541C43.5938 22.3965 43.416 22.3242 43.1895 22.3242C42.9746 22.3242 42.8008 22.3965 42.668 22.541C42.5352 22.6816 42.4688 22.8789 42.4688 23.1328V23.5605ZM45.4219 27.9082C45.4219 27.3809 45.5938 26.957 45.9375 26.6367C46.2812 26.3125 46.7266 26.1504 47.2734 26.1504C47.8281 26.1504 48.2754 26.3105 48.6152 26.6309C48.959 26.9473 49.1309 27.3848 49.1309 27.9434V28.3652C49.1309 28.8887 48.9629 29.3125 48.627 29.6367C48.291 29.957 47.8438 30.1172 47.2852 30.1172C46.7227 30.1172 46.2715 29.9551 45.9316 29.6309C45.5918 29.3066 45.4219 28.877 45.4219 28.3418V27.9082ZM46.5469 28.3652C46.5469 28.5801 46.6172 28.7637 46.7578 28.916C46.8984 29.0684 47.0742 29.1445 47.2852 29.1445C47.7617 29.1445 48 28.8809 48 28.3535V27.9082C48 27.6738 47.9336 27.4863 47.8008 27.3457C47.668 27.2012 47.4922 27.1289 47.2734 27.1289C47.0547 27.1289 46.8789 27.2012 46.7461 27.3457C46.6133 27.4863 46.5469 27.6797 46.5469 27.9258V28.3652ZM43.5352 29.3613L42.709 28.916L46.875 22.248L47.7012 22.6934L43.5352 29.3613Z" fill="white"/>
<defs>
<filter id="filter0_d" x="0" y="0" width="69" height="54" filterUnits="userSpaceOnUse" color-interpolation-filters="sRGB">
<feFlood flood-opacity="0" result="BackgroundImageFix"/>
<feColorMatrix in="SourceAlpha" type="matrix" values="0 0 0 0 0 0 0 0 0 0 0 0 0 0 0 0 0 0 127 0"/>
<feOffset dy="4"/>
<feGaussianBlur stdDeviation="5"/>
<feColorMatrix type="matrix" values="0 0 0 0 0 0 0 0 0 0 0 0 0 0 0 0 0 0 0.15 0"/>
<feBlend mode="normal" in2="BackgroundImageFix" result="effect1_dropShadow"/>
<feBlend mode="normal" in="SourceGraphic" in2="effect1_dropShadow" result="shape"/>
</filter>
</defs>
</svg>
